<svg width="75" height="75" viewBox="0 0 75 75" fill="none" xmlns="http://www.w3.org/2000/svg">
<path d="M37.5 0C30.0832 0 22.833 2.19934 16.6661 6.31989C10.4993 10.4404 5.69282 16.2971 2.85453 23.1494C0.0162481 30.0016 -0.726377 37.5416 0.720569 44.8159C2.16751 52.0902 5.73904 58.772 10.9835 64.0165C16.228 69.261 22.9098 72.8325 30.1841 74.2794C37.4584 75.7264 44.9984 74.9838 51.8506 72.1455C58.7029 69.3072 64.5596 64.5007 68.6801 58.3339C72.8007 52.167 75 44.9168 75 37.5C75 27.5544 71.0491 18.0161 64.0165 10.9835C56.9839 3.95088 47.4456 0 37.5 0ZM57.4473 39.8973L25.3045 55.9687C24.896 56.1729 24.4421 56.2692 23.986 56.2485C23.5298 56.2278 23.0865 56.0909 22.6981 55.8507C22.3098 55.6105 21.9893 55.275 21.7671 54.8761C21.5449 54.4772 21.4284 54.0281 21.4286 53.5714V21.4286C21.4288 20.9722 21.5457 20.5234 21.7681 20.1248C21.9905 19.7263 22.311 19.3911 22.6993 19.1513C23.0876 18.9114 23.5307 18.7747 23.9866 18.7541C24.4426 18.7336 24.8962 18.8299 25.3045 19.0339L57.4473 35.1054C57.8917 35.328 58.2653 35.67 58.5263 36.0929C58.7874 36.5158 58.9257 37.003 58.9257 37.5C58.9257 37.997 58.7874 38.4842 58.5263 38.9071C58.2653 39.33 57.8917 39.6719 57.4473 39.8946" fill="#E3E1FE"/>
</svg>
